<svg width="1500" height="1500" viewBox="0 0 1500 1500" fill="none" xmlns="http://www.w3.org/2000/svg">
<mask id="mask0_108_100" style="mask-type:luminance" maskUnits="userSpaceOnUse" x="0" y="0" width="1500" height="1500">
<path d="M1500 0H0V1500H1500V0Z" fill="white"/>
</mask>
<g mask="url(#mask0_108_100)">
<path d="M1278.18 759.955C1278.18 1059.72 1035.17 1302.73 735.395 1302.73C435.623 1302.73 192.611 1059.72 192.611 759.955C192.611 460.194 435.623 217.171 735.395 217.171C1035.17 217.171 1278.18 460.194 1278.18 759.955Z" fill="#FAB217"/>
<path d="M732.469 301.387C979.415 301.387 1179.92 501.888 1179.92 748.834C1179.92 995.78 979.415 1196.28 732.469 1196.28C485.523 1196.28 285.022 995.78 285.022 748.834C285.022 501.888 485.523 301.387 732.469 301.387Z" fill="#F6CA10"/>
<path d="M460.841 491.241C620.279 331.803 879.182 331.803 1038.62 491.241C1198.06 650.679 1198.06 909.582 1038.62 1069.02C879.182 1228.46 620.279 1228.46 460.841 1069.02C301.403 909.582 301.403 650.679 460.841 491.241Z" fill="#FAB217"/>
<path d="M735.395 337.654C502.537 337.654 313.106 527.074 313.106 759.944C313.106 992.814 502.537 1182.23 735.395 1182.23C968.254 1182.23 1157.69 992.792 1157.69 759.944C1157.69 527.096 968.243 337.665 735.395 337.665C735.395 337.665 968.243 337.654 735.395 337.654ZM735.395 1229.03C476.742 1229.03 266.312 1018.61 266.312 759.955C266.312 501.301 476.742 290.871 735.395 290.871C994.049 290.871 1204.48 501.29 1204.48 759.955C1204.48 1018.62 994.049 1229.03 735.395 1229.03Z" fill="#D78E1C"/>
<mask id="mask1_108_100" style="mask-type:alpha" maskUnits="userSpaceOnUse" x="316" y="338" width="843" height="843">
<path d="M737.456 338.949C969.648 338.949 1158.17 527.47 1158.17 759.662C1158.17 991.853 969.648 1180.37 737.456 1180.37C505.265 1180.37 316.744 991.853 316.744 759.662C316.744 527.47 505.265 338.949 737.456 338.949Z" fill="#F90000"/>
</mask>
<g mask="url(#mask1_108_100)">
<mask id="mask2_108_100" style="mask-type:luminance" maskUnits="userSpaceOnUse" x="181" y="233" width="1157" height="1157">
<path d="M181.3 233.15H1337.4V1389.25H181.3V233.15Z" fill="white"/>
</mask>
<g mask="url(#mask2_108_100)">
<mask id="mask3_108_100" style="mask-type:luminance" maskUnits="userSpaceOnUse" x="484" y="379" width="551" height="793">
<path d="M484.899 379.45H1034.9V1171.45H484.899V379.45Z" fill="white"/>
</mask>
<g mask="url(#mask3_108_100)">
<mask id="mask4_108_100" style="mask-type:luminance" maskUnits="userSpaceOnUse" x="526" y="402" width="451" height="734">
<path d="M526.149 402.55H976.049V1135.15H526.149V402.55Z" fill="white"/>
</mask>
<g mask="url(#mask4_108_100)">
<path d="M531.045 831.352L750.66 1134.36L970.286 831.352L750.66 974.649L531.045 831.352Z" fill="#F6CA10"/>
<path d="M750.659 944.652H750.67L975.202 809.473L750.67 424.319L526.149 809.473L750.659 944.652Z" fill="#F6CA10"/>
<path d="M750.67 402.55L526.149 787.704L750.67 922.872L975.202 787.704L750.67 402.55Z" fill="#D78E1C"/>
<path d="M750.671 952.88L531.056 809.583L750.671 1112.58L970.297 809.583L750.671 952.88Z" fill="#D78E1C"/>
<path d="M750.67 708.955L526.149 787.704L750.67 922.872L975.202 787.704L750.67 708.955Z" fill="#C2802D"/>
</g>
</g>
</g>
</g>
<g opacity="0.2">
<path d="M735.395 217.172C612.033 216.996 492.322 259.026 396.144 336.28C375.967 393.262 365.684 453.272 365.74 513.72C365.74 807.024 603.516 1044.8 896.831 1044.8C1031.51 1044.99 1161.19 993.803 1259.44 901.69C1271.89 855.479 1278.17 807.826 1278.14 759.967C1278.18 460.195 1035.17 217.172 735.395 217.172Z" fill="#FFFAEF"/>
</g>
</g>
</svg>
